HIERARCHY
ROOT Hips
{
	OFFSET 0.00000 0.00000 0.00000
	CHANNELS 6 Xposition Yposition Zposition Zrotation Yrotation Xrotation 
	JOINT LHipJoint
	{
		OFFSET 0 0 0
		CHANNELS 3 Zrotation Yrotation Xrotation
		JOINT LeftUpLeg
		{
			OFFSET 1.56741 -1.82513 0.67319
			CHANNELS 3 Zrotation Yrotation Xrotation
			JOINT LeftLeg
			{
				OFFSET 2.35708 -6.47604 0.00000
				CHANNELS 3 Zrotation Yrotation Xrotation
				JOINT LeftFoot
				{
					OFFSET 2.70636 -7.43567 0.00000
					CHANNELS 3 Zrotation Yrotation Xrotation
					JOINT LeftToeBase
					{
						OFFSET 0.20427 -0.56122 2.08535
						CHANNELS 3 Zrotation Yrotation Xrotation
						End Site
						{
							OFFSET 0.00000 -0.00000 1.08535
						}
					}
				}
			}
		}
	}
	JOINT RHipJoint
	{
		OFFSET 0 0 0
		CHANNELS 3 Zrotation Yrotation Xrotation
		JOINT RightUpLeg
		{
			OFFSET -1.51422 -1.82513 0.67319
			CHANNELS 3 Zrotation Yrotation Xrotation
			JOINT RightLeg
			{
				OFFSET -2.48824 -6.83638 0.00000
				CHANNELS 3 Zrotation Yrotation Xrotation
				JOINT RightFoot
				{
					OFFSET -2.70033 -7.41909 0.00000
					CHANNELS 3 Zrotation Yrotation Xrotation
					JOINT RightToeBase
					{
						OFFSET -0.19750 -0.54263 2.22151
						CHANNELS 3 Zrotation Yrotation Xrotation
						End Site
						{
							OFFSET -0.00000 -0.00000 1.14915
						}
					}
				}
			}
		}
	}
	JOINT LowerBack
	{
		OFFSET 0 0 0
		CHANNELS 3 Zrotation Yrotation Xrotation
		JOINT Spine
		{
			OFFSET -0.01567 2.12874 -0.15842
			CHANNELS 3 Zrotation Yrotation Xrotation
			JOINT Spine1
			{
				OFFSET 0.06098 2.13326 -0.01043
				CHANNELS 3 Zrotation Yrotation Xrotation
				JOINT Neck
				{
					OFFSET 0 0 0
					CHANNELS 3 Zrotation Yrotation Xrotation
					JOINT Neck1
					{
						OFFSET -0.05040 1.78432 0.13387
						CHANNELS 3 Zrotation Yrotation Xrotation
						JOINT Head
						{
							OFFSET -0.00180 1.76880 -0.33303
							CHANNELS 3 Zrotation Yrotation Xrotation
							End Site
							{
								OFFSET 0.00734 1.81249 -0.12719
							}
						}
					}
				}
				JOINT LeftShoulder
				{
					OFFSET 0 0 0
					CHANNELS 3 Zrotation Yrotation Xrotation
					JOINT LeftArm
					{
						OFFSET 3.72199 0.94188 -0.54317
						CHANNELS 3 Zrotation Yrotation Xrotation
						JOINT LeftForeArm
						{
							OFFSET 5.14601 -0.00000 0.00000
							CHANNELS 3 Zrotation Yrotation Xrotation
							JOINT LeftHand
							{
								OFFSET 3.64452 -0.00000 -0.00000
								CHANNELS 3 Zrotation Yrotation Xrotation
								JOINT LeftFingerBase
								{
									OFFSET 0 0 0
									CHANNELS 3 Zrotation Yrotation Xrotation
									JOINT LeftHandIndex1
									{
										OFFSET 0.56228 -0.00000 0.00000
										CHANNELS 3 Zrotation Yrotation Xrotation
										End Site
										{
											OFFSET 0.45332 -0.00000 0.00000
										}
									}
								}
								JOINT LThumb
								{
									OFFSET 0 0 0
									CHANNELS 3 Zrotation Yrotation Xrotation
									End Site
									{
										OFFSET 0.46025 -0.00000 0.46025
									}
								}
							}
						}
					}
				}
				JOINT RightShoulder
				{
					OFFSET 0 0 0
					CHANNELS 3 Zrotation Yrotation Xrotation
					JOINT RightArm
					{
						OFFSET -3.30253 1.22679 -0.46941
						CHANNELS 3 Zrotation Yrotation Xrotation
						JOINT RightForeArm
						{
							OFFSET -5.33913 -0.00000 0.00000
							CHANNELS 3 Zrotation Yrotation Xrotation
							JOINT RightHand
							{
								OFFSET -3.56478 -0.00000 -0.00000
								CHANNELS 3 Zrotation Yrotation Xrotation
								JOINT RightFingerBase
								{
									OFFSET 0 0 0
									CHANNELS 3 Zrotation Yrotation Xrotation
									JOINT RightHandIndex1
									{
										OFFSET -0.85747 -0.00000 0.00000
										CHANNELS 3 Zrotation Yrotation Xrotation
										End Site
										{
											OFFSET -0.69132 -0.00000 0.00000
										}
									}
								}
								JOINT RThumb
								{
									OFFSET 0 0 0
									CHANNELS 3 Zrotation Yrotation Xrotation
									End Site
									{
										OFFSET -0.70187 -0.00000 0.70187
									}
								}
							}
						}
					}
				}
			}
		}
	}
}
MOTION
Frames: 8
Frame Time: 0.0357143
0.00 0.00 0.00 -348.1620 -54.0859 355.6010 0.0000 0.0000 0.0000 -31.2804 -10.8691 1.5764 1.2417 7.0657 19.9101 -2.3990 -26.2671 12.9491 1.5829 7.9370 22.5230 0.0000 0.0000 0.0000 20.1674 8.4003 -35.6567 -5.0768 -13.4697 41.1532 -0.7415 1.0681 -15.9416 -0.0606 1.5878 -4.3678 -4.0673 0.8896 7.1606 0.9572 0.8884 1.6323 3.1957 0.4587 -2.4037 -5.0247 5.1046 -11.1168 2.7864 7.2592 28.9975 2.7247 2.9575 10.8593 -0.0000 0.0000 0.0000 -89.3453 -4.6975 25.7012 44.1328 -50.3365 -21.5691 -0.0000 0.0000 -7.1351 18.4018 29.2373 9.2296 -7.1250 0.0000 -0.0000 -14.4864 59.9296 -5.3455 -0.0000 0.0000 0.0000 84.8629 -6.6039 14.6001 -23.2436 34.3541 -7.2753 0.0000 0.0000 8.2867 -16.1464 -0.1904 0.0551 7.1250 -0.0000 -0.0000 8.2094 -30.1247 3.0081
0.00 0.00 0.00 -349.8790 -31.9281 360.3550 0.0000 0.0000 0.0000 -30.9221 -7.4201 10.6692 0.1647 2.6149 7.2084 -1.8996 -27.4350 25.9461 4.2347 12.4663 37.4023 0.0000 0.0000 0.0000 11.9064 18.9329 -32.3193 -2.5949 -10.0085 29.0041 -0.0279 1.8955 -3.0557 -0.0013 0.2314 -0.6357 -5.6156 -2.4559 7.2138 1.9497 -3.6479 1.4787 5.4929 -1.7993 -2.0263 -4.5709 2.8243 -11.7624 1.0665 4.5287 26.7951 1.6930 1.6591 10.3685 0.0000 -0.0000 0.0000 -90.5462 -11.0915 38.2175 36.4184 -45.7988 -15.8217 -0.0000 -0.0000 4.3815 11.7335 22.0261 4.4540 -7.1250 0.0000 -0.0000 -17.3088 51.6032 -2.8872 0.0000 -0.0000 0.0000 82.0330 -8.3737 15.7726 -26.0240 37.2324 -8.9022 0.0000 0.0000 9.6487 -15.0802 4.2028 -1.1313 7.1250 -0.0000 -0.0000 8.7047 -25.6168 4.1307
0.00 0.00 0.00 -353.0090 -28.1504 361.8940 0.0000 0.0000 0.0000 -28.3622 -6.2560 11.3017 0.6864 5.2969 14.7574 1.2204 -19.7581 35.6924 2.6633 10.1289 29.3952 0.0000 0.0000 0.0000 15.1752 17.5634 -28.6474 -3.8947 -12.0189 35.7988 -0.1089 1.3971 -5.9001 -0.8775 -5.9721 16.7035 -2.7959 -1.2911 5.7196 3.1035 -1.8353 1.4832 4.9088 -0.9200 -1.4854 -5.7432 3.4237 -9.2461 0.5084 5.6366 27.2763 1.7674 1.9999 10.0146 0.0000 -0.0000 0.0000 -95.3699 -8.8622 31.7773 21.7612 -32.7061 -6.4563 -0.0000 -0.0000 0.9715 21.0074 27.7762 10.1461 -7.1250 0.0000 -0.0000 -10.7594 59.0883 -3.7309 0.0000 -0.0000 0.0000 81.9349 -3.2376 0.6933 -16.1246 25.6894 -3.6998 0.0000 0.0000 15.4242 -16.4339 -3.4385 1.0135 7.1250 -0.0000 -0.0000 8.3058 -33.4795 2.3671
0.00 0.00 0.00 -356.9100 -21.9897 363.2040 0.0000 0.0000 0.0000 -22.3611 -7.5636 3.1944 2.8564 10.4588 30.4756 4.0037 -11.7396 42.9976 0.2861 3.4402 9.5068 0.0000 0.0000 0.0000 20.2112 12.6658 -25.0498 -3.9248 -12.0596 35.9433 -0.2627 1.3305 -9.3062 -0.9435 -6.1864 17.3262 -0.4320 -1.4409 5.9615 4.0357 -1.8715 1.2493 4.5567 -0.9358 -1.9039 -4.8859 2.4450 -10.8603 0.4683 4.2618 27.6811 1.5058 1.4421 10.5447 0.0000 -0.0000 0.0000 -91.9105 -7.3477 36.8685 18.0788 -28.2580 -4.5865 -0.0000 -0.0000 2.2016 13.5383 27.0070 6.2400 -7.1250 0.0000 -0.0000 -18.1839 56.7063 -5.3396 0.0000 -0.0000 0.0000 82.5997 -5.4261 2.7461 -17.6290 27.6795 -4.3755 0.0000 0.0000 12.2612 -13.8627 -0.0050 0.0012 7.1250 -0.0000 -0.0000 9.9764 -29.9080 3.7243
0.00 0.00 0.00 -379.7390 -78.3777 381.1890 0.0000 0.0000 0.0000 -2.4647 -8.0751 -30.2185 4.6810 13.0153 39.4257 0.1448 -7.1899 -7.8857 4.8828 -13.2506 -40.3141 0.0000 0.0000 0.0000 17.7368 7.1715 5.2160 -1.9153 -8.6873 24.8219 -1.1553 -1.0010 -20.6975 -0.3947 4.0339 -11.1720 1.7244 1.5595 9.1071 2.7420 2.1477 3.6539 1.6470 1.0142 -1.3563 -4.4721 -0.4269 -6.4652 4.0531 -2.7692 36.8117 1.9436 -1.8164 13.6230 0.0000 -0.0000 0.0000 -87.1235 0.2010 10.4122 20.6963 -31.4721 -5.8906 -0.0000 -0.0000 2.1701 21.3269 29.1509 10.7680 -7.1250 0.0000 -0.0000 -11.2082 60.5429 -4.2788 0.0000 -0.0000 0.0000 87.8931 2.8596 3.9230 -19.0974 29.5395 -5.0788 0.0000 0.0000 15.9264 -20.2740 0.4428 -0.1636 7.1250 -0.0000 -0.0000 4.9327 -29.4910 1.8715
0.00 0.00 0.00 -354.4350 -40.7043 356.9170 0.0000 0.0000 0.0000 -32.4238 -1.7599 16.7683 1.6379 8.0671 22.9181 0.9674 -8.4006 -17.6554 0.5723 -4.8446 -13.4658 0.0000 0.0000 0.0000 21.8833 2.0819 -43.2730 -6.9614 -15.2993 48.7283 0.4215 -13.2350 -12.0405 -2.6783 -10.1551 29.4805 -6.3367 -2.9877 6.9680 3.1954 -4.3849 0.6492 7.2871 -2.1241 -2.4996 -9.1012 -10.7887 -6.9807 6.7686 -15.4424 21.1507 2.0960 -7.4719 9.0083 -0.0000 0.0000 0.0000 -87.6639 -8.4702 22.1936 24.4008 -35.5852 -7.9386 -0.0000 -0.0000 3.2726 18.6467 27.0902 8.7363 -7.1250 0.0000 -0.0000 -12.9202 57.8727 -4.1160 -0.0000 0.0000 0.0000 86.6076 -5.0680 -3.1374 -16.0778 25.6260 -3.6795 0.0000 0.0000 19.4713 -15.3694 0.1514 -0.0416 7.1250 -0.0000 -0.0000 8.7866 -29.7652 3.3002
0.00 0.00 0.00 -360.9570 -46.3036 360.0030 0.0000 0.0000 0.0000 -5.3071 -10.9766 -23.4794 2.6244 10.0606 29.1731 0.0137 2.1518 -3.9639 1.1843 -6.9064 -19.4382 0.0000 0.0000 0.0000 28.1827 6.4448 1.7253 -2.6499 -10.1055 29.3191 -1.2436 3.9784 -20.1405 -0.3837 -3.9782 11.0152 1.0146 -0.7952 8.6105 1.1552 -0.9639 2.1743 0.7259 -0.4968 -2.5709 -8.9093 -9.7913 -8.3263 2.9654 -13.0473 22.0675 1.0339 -6.6465 9.0817 -0.0000 0.0000 0.0000 -86.5626 -0.6548 19.0842 40.0125 -48.0773 -18.4485 -0.0000 0.0000 -6.4834 17.1049 25.5481 7.5599 -7.1250 0.0000 -0.0000 -13.7016 56.0223 -3.7548 -0.0000 0.0000 0.0000 82.9459 -5.5342 32.9405 -26.1594 37.3657 -8.9842 0.0000 0.0000 12.0912 -10.5931 6.0838 -1.1355 7.1250 -0.0000 -0.0000 11.8973 -23.8067 6.2124
0.00 0.00 0.00 -350.9910 -46.0990 356.4940 0.0000 0.0000 0.0000 -37.7144 -2.1356 7.4192 1.0861 6.6237 18.6051 0.4923 -9.4597 -13.2346 0.0095 -0.6297 -1.7306 0.0000 0.0000 0.0000 29.1343 4.9253 -36.4193 -4.4168 -12.6953 38.2382 0.8113 16.2442 10.5229 -4.0907 -12.2801 36.7303 -6.9846 -2.1057 6.5069 1.4372 -3.2716 0.5808 5.6941 -1.5549 -2.5706 -7.0406 -5.6840 -10.9876 7.3620 -8.8936 25.6159 2.6718 -4.0693 10.6751 0.0000 0.0000 0.0000 -86.6240 -3.1559 27.1885 39.4500 -47.7407 -18.0311 -0.0000 0.0000 -0.5217 20.5608 24.2417 8.7553 -7.1250 0.0000 -0.0000 -9.5034 55.4119 -2.4450 0.0000 0.0000 0.0000 88.6337 -3.3824 17.1094 -23.9714 35.1340 -7.6901 0.0000 0.0000 12.6655 -15.6931 2.7264 -0.7657 7.1250 -0.0000 -0.0000 8.3355 -27.1227 3.6547
